<svg width="24" height="24" viewBox="0 0 24 24" fill="none" xmlns="http://www.w3.org/2000/svg">
<path d="M19 2C19 0.896 18.104 0 17 0H7C5.896 0 5 0.896 5 2V22C5 23.104 5.896 24 7 24H17C18.104 24 19 23.104 19 22V2ZM10.5 2H13.5C13.776 2 14 2.224 14 2.5C14 2.776 13.776 3 13.5 3H10.5C10.224 3 10 2.776 10 2.5C10 2.224 10.224 2 10.5 2ZM12 22C11.447 22 11 21.552 11 21C11 20.448 11.447 20 12 20C12.552 20 12.999 20.448 12.999 21C12.999 21.552 12.552 22 12 22ZM17 19H7V4.976H17V19Z" fill="#FFCEB3"/>
</svg>
