<svg width="100" height="100" viewBox="0 0 100 100" fill="none" xmlns="http://www.w3.org/2000/svg">
<path d="M46.25 12.9166C48.3334 15.8333 50 19.1666 50 22.9166C50 26.6666 48.3334 29.9999 46.25 32.9166C44.5834 31.2499 42.9167 27.9166 42.9167 22.9166C42.5 17.9166 44.5834 14.5833 46.25 12.9166ZM24.5834 12.9166C22.5 15.8333 20.8334 19.1666 20.8334 22.9166C20.8334 26.6666 22.5 29.9999 24.5834 32.9166C26.25 31.2499 27.9167 27.9166 27.9167 22.9166C28.3334 17.9166 26.25 14.5833 24.5834 12.9166ZM31.25 22.9166C31.25 28.7499 29.1667 32.4999 27.0834 34.9999C29.5834 36.6666 32.0834 37.4999 35.4167 37.4999C38.75 37.4999 41.25 36.6666 43.75 34.9999C41.6667 32.9166 39.5834 29.1666 39.5834 22.9166C39.5834 17.0833 41.6667 13.3333 43.75 10.8333C41.25 9.16658 38.75 8.33325 35.4167 8.33325C32.0834 8.33325 29.5834 9.16658 27.0834 10.8333C28.75 13.3333 31.25 17.0833 31.25 22.9166Z" fill="#3C3C3C"/>
<path d="M28.75 79.1667L17.5 90.4167C15.8333 92.0833 13.3333 92.0833 11.6667 90.4167L10 88.75C8.33333 87.0833 8.33333 84.5833 10 82.9167L20.8333 71.25L28.75 79.1667Z" fill="#3C3C3C"/>
<path d="M39.1665 60.8333C39.1665 60.8333 36.2498 48.3333 36.2498 47.0833L30.4165 47.4999C30.8331 52.0832 30.8331 65.4166 25.8331 69.9999L29.9998 74.1666C34.9998 69.1666 47.9165 69.1666 52.4998 69.5833L52.9165 63.7499C51.6665 63.7499 39.1665 60.8333 39.1665 60.8333Z" fill="#3C3C3C"/>
<path d="M84.9998 14.9999C80.8331 10.4166 74.9998 8.33325 68.3331 8.33325C62.9165 8.33325 57.0831 9.99992 51.2498 12.9166C52.9165 15.4166 54.1665 17.9166 54.1665 21.2499C58.7498 18.3333 63.7498 16.6666 68.3331 16.6666C71.2498 16.6666 75.8331 17.4999 79.1665 20.8333C82.4998 24.1666 83.7498 28.7499 82.9165 34.5833C82.0831 40.8333 78.7498 47.0833 73.7498 52.4999C67.9165 58.3333 59.9998 62.0832 52.9165 62.0832C49.9998 62.0832 45.4165 61.2499 42.0831 57.9166C38.3331 53.7499 37.4998 47.4999 39.1665 41.2499C37.9165 41.6666 36.6665 41.6666 35.8331 41.6666C34.1665 41.6666 32.4998 41.2499 30.8331 40.8333C29.1665 49.5833 30.8331 57.9166 36.6665 63.3332C41.2498 67.9166 47.0831 69.9999 53.3331 69.9999C62.0831 69.9999 72.0831 65.8332 79.9998 57.9166C93.3331 44.5832 95.4165 25.4166 84.9998 14.9999Z" fill="#3C3C3C"/>
</svg>
