<svg width="100" height="100" viewBox="0 0 100 100" fill="none" xmlns="http://www.w3.org/2000/svg">
<path d="M68.2649 27.0177L26.7228 68.5598L31.4368 73.2738L72.9789 31.7317L68.2649 27.0177Z" fill="#3C3C3C"/>
<path d="M86.9452 8.55664L83.114 12.3862L87.8273 17.1016L91.6586 13.272L86.9452 8.55664Z" fill="#3C3C3C"/>
<path d="M13.0532 91.2751L16.8844 87.4456L12.1711 82.7302L8.33986 86.5598L13.0532 91.2751Z" fill="#3C3C3C"/>
<path d="M58.5068 13.6434L50.2527 21.8882L77.9318 49.5986L86.1859 41.3538L58.5068 13.6434Z" fill="#3C3C3C"/>
<path d="M73.3022 8.46167L66.8168 14.9407L85.3703 33.5125L91.8557 27.0335L73.3022 8.46167Z" fill="#3C3C3C"/>
<path d="M41.485 86.0395L49.7391 77.7947L22.06 50.0843L13.8059 58.3291L41.485 86.0395Z" fill="#3C3C3C"/>
<path d="M26.6923 91.5859L33.1777 85.1069L14.6242 66.5351L8.13881 73.0141L26.6923 91.5859Z" fill="#3C3C3C"/>
</svg>
