<svg width="100" height="100" viewBox="0 0 100 100" fill="none" xmlns="http://www.w3.org/2000/svg">
<path d="M34.0079 31.1609H17.4095C13.472 31.1609 10.2954 34.3421 10.2954 38.275V99.9281H41.122V38.275C41.122 34.3421 37.922 31.1609 34.0079 31.1609Z" fill="#3C3C3C"/>
<path d="M26.4938 26.7328C30.4141 26.3156 33.2954 23 33.2579 19.1141C33.2829 19.1125 33.3079 19.1094 33.3079 19.1094C33.3079 19.1094 33.7766 13.6156 23.6516 0.0703125C26.5782 6.83125 21.5719 10.6781 19.1782 15.2969C19.1125 15.3781 19.0719 15.4578 19.0532 15.5375C18.9282 15.7734 18.8032 16.0156 18.6829 16.2797C18.5813 16.5141 18.4844 16.7734 18.4094 17.0328C18.3954 17.1094 18.3766 17.1891 18.3579 17.2641C18.125 18.1172 18.0454 19.0297 18.1454 19.9734C18.5954 24.1687 22.3282 27.1781 26.4938 26.7328Z" fill="#3C3C3C"/>
<path d="M89.4392 32.9109C81.8658 40.2328 73.7064 43.4968 68.8955 44.6C64.0877 45.7015 50.8252 50.314 46.597 61.5796C39.6064 85.1796 50.6673 99.9265 50.6673 99.9265C43.3502 73.3156 55.183 67.8171 63.5314 63.1109C64.9814 62.314 66.2595 61.5656 67.4642 60.8375C67.4189 60.8703 67.3783 60.8984 67.3298 60.9343C51.7455 71.9796 51.8673 78.2406 51.7783 82.6874C51.7189 85.8374 52.8345 85.814 54.2392 85.0124C54.9252 84.7437 67.9033 79.6265 72.3142 76.8609C72.3173 76.8609 72.3189 76.8609 72.322 76.8562C74.8939 75.4796 77.8283 73.5546 80.5142 70.9187C92.1017 59.0187 89.4392 32.9109 89.4392 32.9109Z" fill="#3C3C3C"/>
</svg>
