<svg width="150" height="150" viewBox="0 0 150 150" fill="none" xmlns="http://www.w3.org/2000/svg">
<path fill-rule="evenodd" clip-rule="evenodd" d="M65.6485 72.4934L57.9406 57.7242H47.2677L65.6485 92.7597L83.974 57.7242H73.3564L65.6485 72.4934ZM132.81 65.5403L147.795 91.9519H136.259L134.427 88.2859H121.381L119.603 91.9519H108.069L127.903 56.862L132.81 65.5403ZM132.81 60.2043C133.24 60.2043 133.618 60.0424 133.888 59.7195C134.211 59.3958 134.372 59.0183 134.372 58.5872C134.372 58.1561 134.211 57.8324 133.888 57.5094C133.618 57.1857 133.24 57.0238 132.81 57.0238C132.378 57.0238 132.001 57.1857 131.678 57.5094C131.354 57.8332 131.246 58.1561 131.246 58.5872C131.246 59.0183 131.408 59.3958 131.678 59.7195C132.001 60.0424 132.378 60.2043 132.81 60.2043ZM132.81 56.7001C132.325 56.7001 131.839 56.862 131.516 57.2394C131.085 57.5623 130.922 58.0479 130.922 58.5864C130.922 59.1257 131.085 59.6105 131.461 59.9335C131.838 60.3109 132.27 60.5265 132.809 60.5265C133.294 60.5265 133.779 60.3109 134.155 59.9872C134.533 59.6105 134.695 59.1249 134.695 58.5857C134.695 58.1009 134.533 57.6153 134.155 57.2386C133.779 56.862 133.348 56.7001 132.81 56.7001ZM132.81 58.9102C132.863 58.9102 132.918 58.9646 132.971 58.9646C133.025 58.9646 133.079 59.0183 133.079 59.1265C133.134 59.1802 133.134 59.2339 133.134 59.3958C133.134 59.5039 133.134 59.6113 133.186 59.665H133.671V59.6113V59.5576V59.2884C133.671 59.0728 133.618 58.9109 133.456 58.8036C133.403 58.7499 133.295 58.7499 133.186 58.6954C133.328 58.6893 133.462 58.6317 133.563 58.5335C133.618 58.4798 133.671 58.3717 133.671 58.1561C133.671 57.9405 133.618 57.7787 133.402 57.6705C133.268 57.6031 133.12 57.5661 132.97 57.5623H131.945V59.665H132.538V58.9102H132.81ZM132.81 57.9405H132.539V58.5335H132.809C132.917 58.5335 132.97 58.4798 133.025 58.4798C133.133 58.4261 133.133 58.318 133.133 58.2106C133.133 58.1024 133.078 57.995 132.97 57.995C132.918 57.9405 132.863 57.9405 132.81 57.9405ZM127.903 75.5112L124.616 81.8721H131.193L127.903 75.5112ZM45.1659 91.9519V57.725H35.1942V91.9519H45.1659ZM107.152 66.8881V57.725H86.0759V91.9519H107.152V82.8433H96.1028V78.3687H107.152V71.2001H96.1028V66.8881H107.152ZM29.2644 57.725H19.2927V71.0382L2.20532 55.5142V91.9519H12.177V79.2302L29.2636 94.4857V57.725H29.2644Z" fill="black"/>
</svg>
