<svg width="150" height="150" viewBox="0 0 150 150" fill="none" xmlns="http://www.w3.org/2000/svg">
<path fill-rule="evenodd" clip-rule="evenodd" d="M26.5946 83.5461C25.4366 83.5461 24.5301 84.3562 24.5301 85.5382C24.5301 86.7211 25.4413 87.5265 26.5946 87.5265C27.7471 87.5265 28.6591 86.7156 28.6591 85.5382C28.6591 84.3562 27.7517 83.5461 26.5946 83.5461ZM26.5946 86.9569C25.7689 86.9569 25.1565 86.3538 25.1565 85.5382C25.1565 84.7235 25.7643 84.1157 26.5946 84.1157C27.4148 84.1157 28.0319 84.7328 28.0319 85.5382C28.0319 86.339 27.4093 86.9569 26.5946 86.9569ZM46.6834 76.5782H36.6332L37.7755 59.1094L31.2489 76.5782H21.9161L36.7242 37.0938H46.6546L45.5084 54.8022L52.1587 37.0938H61.4923L46.6834 76.5782ZM47.8958 76.5782L62.7031 37.0938H72.0359L57.2286 76.5782H47.8958Z" fill="black"/>
<path fill-rule="evenodd" clip-rule="evenodd" d="M20.8398 62.9685C7.79816 78.284 -4.50417 98.6623 6.36241 108.046C16.892 117.14 30.0535 111.756 39.0275 108.166C48.0016 104.577 147.191 61.5024 147.191 61.5024C148.149 61.0238 147.97 60.4254 146.773 60.7242C146.29 60.8448 38.7886 89.9786 38.7886 89.9786C25.147 93.808 9.59266 85.462 20.8398 62.9685Z" fill="black"/>
<path fill-rule="evenodd" clip-rule="evenodd" d="M26.9462 85.6782C27.2357 85.6642 27.4622 85.5148 27.4622 85.1141C27.4622 84.5973 27.1244 84.4674 26.5603 84.4674H25.7494V86.6097H26.2902V85.6977H26.3813L26.8739 86.6097H27.4956L26.9462 85.6782ZM26.5992 85.3312H26.291V84.8339H26.5509C26.7104 84.8339 26.8933 84.8526 26.8933 85.0604C26.8933 85.2829 26.7875 85.3312 26.5992 85.3312ZM120.411 36.9731C119.253 36.9731 118.347 37.784 118.347 38.9653C118.347 40.1474 119.259 40.9528 120.411 40.9528C121.564 40.9528 122.476 40.1419 122.476 38.9653C122.476 37.784 121.57 36.9731 120.411 36.9731ZM120.411 40.3847C119.586 40.3847 118.973 39.7816 118.973 38.9661C118.973 38.1513 119.581 37.5436 120.411 37.5436C121.231 37.5436 121.849 38.1607 121.849 38.9661C121.849 39.7668 121.227 40.3847 120.411 40.3847Z" fill="black"/>
<path fill-rule="evenodd" clip-rule="evenodd" d="M120.764 39.1054C121.053 39.0914 121.28 38.9419 121.28 38.5412C121.28 38.0245 120.942 37.8945 120.379 37.8945H119.568V40.0361H120.108V39.1248H120.2L120.691 40.0361H121.314L120.764 39.1054ZM120.416 38.7583H120.108V38.261H120.368C120.527 38.261 120.711 38.2805 120.711 38.4883C120.711 38.71 120.604 38.7583 120.416 38.7583ZM114.262 43.6749L116.77 37.0938H88.2931L78.5152 48.9393L83.0295 37.0938H73.5769L58.8878 76.5781H68.2206L74.492 60.0666L74.9216 76.5781L103.558 76.5159L106.284 68.9208H95.3964L98.9737 59.3491H107.947L110.708 51.9906H101.735L104.811 43.6749H114.262ZM84.1804 73.9455L83.582 53.3664L97.6928 37.8735L84.1804 73.9455Z" fill="black"/>
</svg>
