<svg width="150" height="150" viewBox="0 0 150 150" fill="none" xmlns="http://www.w3.org/2000/svg">
<path fill-rule="evenodd" clip-rule="evenodd" d="M19.3628 66.9008H9.13592C8.7266 66.9008 8.16552 66.9872 8.16552 67.5156C8.16552 67.8066 8.37019 68.0222 8.56396 68.205L11.2697 70.9637C12.002 71.7077 12.4658 72.6236 12.4658 73.6796C12.4658 74.3045 12.3366 75.0585 11.9374 75.555L8.33828 79.9183C8.38108 79.628 8.41377 79.3152 8.41377 79.0141C8.41377 77.7098 7.72429 76.6958 6.80837 75.8235L5.6551 74.7457L3.30575 72.4501C2.64819 71.8143 2.20618 70.8011 2.20618 69.8852C2.20618 68.3552 3.23027 66.9428 4.31895 65.9623L10.8931 60.0668C11.9817 59.0863 13.4471 59.0435 14.8268 59.0435H44.5932L41.9201 64.1414C40.9497 65.9841 39.1934 66.9 37.1561 66.9H28.4264L18.6189 87.4947C17.8858 89.0464 16.3777 89.6184 14.7178 89.6184H9.02775L19.3628 66.9008Z" fill="black"/>
<path fill-rule="evenodd" clip-rule="evenodd" d="M42.3185 82.3765C39.3116 84.5422 36.1429 86.5803 32.7165 88.0137C30.8092 88.7997 28.438 89.7265 26.3362 89.7265C24.2133 89.7265 22.6935 88.4651 22.6935 86.2138C22.6935 82.6022 25.7432 77.2997 27.9206 74.6056C31.1967 70.5528 35.7343 68.7645 40.8641 68.7645C42.7178 68.7645 44.5714 68.9155 46.4141 69.1093L44.0539 73.4523C43.5909 74.3145 42.7177 75.425 41.6189 75.3495L40.5412 75.2632C39.8927 75.2046 39.2421 75.1724 38.591 75.1667C37.3942 75.1667 35.8853 75.3075 34.9911 76.19C34.0324 77.1386 32.3399 79.6708 32.3399 81.0186C32.3399 82.0855 33.3422 82.6676 34.3017 82.6676C37.6642 82.6676 42.1691 79.3587 44.7667 77.365L45.1651 76.4802L51.2435 64.0768C52.2887 62.1367 53.1618 60.6387 55.4683 60.1321C56.9017 59.8092 58.4316 59.7119 59.8978 59.7119C61.4386 59.7119 63.5404 60.2403 63.5404 62.1585C63.5404 64.0767 61.4603 66.1031 60.1997 67.3202C58.7554 68.7319 57.2901 70.1225 55.7376 71.4158L52.9789 77.1495L53.5174 76.73L55.5111 74.9075C57.7531 72.8819 60.3499 71.1785 63.012 69.7458C64.2509 69.0665 65.5878 68.647 67.0104 68.647C68.4547 68.647 69.4251 69.1746 69.4251 70.7808C69.4251 72.4625 67.7224 75.4367 66.9567 76.902L64.8338 80.9112C64.7272 81.1257 64.6718 81.362 64.6719 81.6015C64.6719 81.9999 65.0602 82.1392 65.405 82.1392C66.1053 82.1392 66.6337 81.6653 67.1512 81.2559L71.527 77.786L74.0382 72.4399L74.5883 71.2003C75.3751 69.433 77.1641 68.9801 78.9205 68.9801H84.4059L78.5221 81.0505C78.4357 81.2342 78.3594 81.438 78.3594 81.6536C78.3594 82.052 78.694 82.3758 79.0933 82.3758C79.61 82.3758 80.2349 82.0092 80.645 81.7089L86.7335 77.1495L93.499 63.3445C94.555 61.1889 96.8079 60.424 99.0817 60.424C100.697 60.424 104.006 60.4776 104.006 62.6978C104.006 65.1335 100.428 68.5715 98.6926 70.0906L98.0257 70.6726L93.2414 80.7058C93.0998 81.0186 92.9496 81.3641 92.9496 81.6964C92.9496 82.3439 93.7262 82.6131 94.264 82.6131C96.2686 82.6131 98.4024 79.5751 99.1564 77.9681C98.909 77.9891 98.6607 78.0226 98.4133 78.0226C97.4864 78.0226 96.6896 77.5253 96.6896 76.5238C96.6896 74.9067 98.5743 73.1613 99.6412 72.2345C101.464 70.6501 103.727 69.3785 106.195 69.3785C107.38 69.3785 108.533 69.8851 108.533 71.2213C108.533 71.4368 108.49 71.6625 108.458 71.8788H112.877C115.559 70.219 118.383 68.7536 121.628 68.7536C123.502 68.7536 125.636 69.303 126.542 71.103C128.729 70.3917 131.089 70.4236 133.373 70.2407C138.449 69.8314 143.732 69.0447 147.794 65.7358C146.888 68.3863 143.407 71.6306 141.165 73.2578C136.347 76.7604 131.433 75.7697 125.872 76.2865C122.208 76.6312 118.717 78.151 116.217 80.8886L115.882 81.2552C116.777 79.5198 117.876 77.8919 119.03 76.3184L120.677 74.0663C121.304 73.2259 122.068 72.0726 122.068 70.973C122.068 70.4345 121.648 69.938 121.098 69.938C120.181 69.938 119.73 70.973 119.494 71.7053C119.202 72.5465 119.041 73.4298 118.749 74.2811C118.361 75.4024 117.726 76.4367 117.079 77.4397L115.237 80.3276C114.126 82.0404 111.185 86.3297 111.185 88.4106C111.185 89.079 111.702 89.5747 112.37 89.5747C114.61 89.5747 112.294 84.778 116.615 80.8443C118.49 79.1315 120.914 77.8483 123.383 77.2561C124.623 76.9549 125.906 76.8896 127.177 76.9005C126.401 80.3595 125.183 82.796 122.716 85.3936C119.924 88.3343 116.151 90.9537 111.949 90.9537C110.289 90.9537 108.685 90.4051 107.487 89.2409C106.109 87.9157 105.655 86.2013 105.655 84.3376C105.655 82.0513 106.345 80.0256 107.509 78.0965H105.979C103.705 81.3844 100.839 83.971 97.4857 86.1258C94.1994 88.2386 89.8345 90.0152 85.8463 90.0152C84.0472 90.0152 82.3235 89.3039 82.3235 87.2137C82.3235 86.297 82.6566 85.4146 83.0558 84.6053L84.1655 82.3742L73.0545 89.0892C72.1604 89.6168 71.0608 89.8642 70.0258 89.8642C68.4204 89.8642 67.4936 88.5934 67.4936 87.0628C67.4936 86.2861 67.8275 85.543 68.1613 84.8527L69.1745 82.7508L59.0013 89.0892C58.2247 89.5631 57.1041 89.767 56.2208 89.767C54.6255 89.767 53.2894 88.8308 53.2894 87.1484C53.2894 85.9858 53.8069 84.8955 54.3454 83.894L56.6519 79.5393C56.8348 79.1945 57.0613 78.807 57.0613 78.4195C57.0613 78.0638 56.7912 77.8055 56.4255 77.8055C54.8629 77.8055 51.4249 82.0629 50.6272 83.3991L48.0296 87.8067C47.2647 89.0892 46.2842 89.6168 44.7644 89.6168H38.8906L42.3185 82.3765Z" fill="black"/>
<path fill-rule="evenodd" clip-rule="evenodd" d="M76.6754 67.0197L78.4855 62.8487C79.4123 60.6822 81.1165 59.7344 83.4005 59.7344H86.3311C87.4105 59.7344 88.1855 59.9492 88.1855 61.1888C88.1855 61.76 88.0354 62.3421 87.7537 62.8487L86.7949 64.5949C86.2992 65.4891 85.4378 66.3194 84.5001 66.7178C83.6168 67.0952 82.6355 67.0197 81.697 67.0197H76.6754Z" fill="black"/>
</svg>
