<svg width="80" height="80" viewBox="0 0 80 80" fill="none" xmlns="http://www.w3.org/2000/svg">
<g clip-path="url(#clip0)">
<path d="M69.4067 64.3567C59.5167 62.0867 47.48 56.2333 51.0267 48.6133C53.3067 52.3667 60.3633 54.5367 65.86 51.2933C50.0367 47.28 73.64 19.7233 52.9567 4.27667C49.1733 1.43333 44.5367 0 39.9167 0C35.3233 0 30.7467 1.41667 27.0433 4.27667C6.35667 19.7233 29.9633 47.28 14.1367 51.2933C19.6333 54.54 26.7033 52.27 28.9733 48.6133C32.52 56.2333 20.47 62.09 10.5933 64.3567C0.666667 66.63 0 72.5767 0 77.7033L0.0166667 80H79.9833L80 77.6967C80 72.5733 79.3333 66.63 69.4067 64.3567Z" fill="#3C3C3C"/>
</g>
<defs>
<clipPath id="clip0">
<rect width="80" height="80" fill="white"/>
</clipPath>
</defs>
</svg>
