<svg width="30" height="30" viewBox="0 0 30 30" fill="none" xmlns="http://www.w3.org/2000/svg">
<path fill-rule="evenodd" clip-rule="evenodd" d="M15 0C6.72125 0 0 6.72125 0 15C0 23.2787 6.72125 30 15 30C23.2787 30 30 23.2787 30 15C30 6.72125 23.2787 0 15 0ZM15 1.25C7.41125 1.25 1.25 7.41125 1.25 15C1.25 22.5888 7.41125 28.75 15 28.75C22.5888 28.75 28.75 22.5888 28.75 15C28.75 7.41125 22.5888 1.25 15 1.25ZM21.035 15.625L15.275 20.3288L16.1238 21.25L23.75 15L16.11 8.75L15.2775 9.69125L21.0325 14.375H6.25V15.625H21.035Z" fill="#3C3C3C"/>
</svg>
