<svg width="30" height="30" viewBox="0 0 30 30" fill="none" xmlns="http://www.w3.org/2000/svg">
<path d="M15 0C6.71625 0 0 6.71625 0 15C0 23.2838 6.71625 30 15 30C23.2838 30 30 23.2838 30 15C30 6.71625 23.2838 0 15 0ZM15 23.75C14.0988 23.75 13.2275 23.6138 12.4088 23.36C12.7662 22.7787 13.3 21.8263 13.4963 21.0662L14.0425 18.9862C14.3288 19.5312 15.1613 19.9912 16.0475 19.9912C18.6863 19.9912 20.5888 17.565 20.5888 14.5487C20.5888 11.6587 18.2288 9.49625 15.1937 9.49625C11.4175 9.49625 9.4125 12.03 9.4125 14.79C9.4125 16.0737 10.0962 17.6712 11.19 18.18C11.355 18.2575 11.4437 18.2225 11.4825 18.0625L11.7237 17.0712C11.745 16.9825 11.735 16.9062 11.6625 16.8188C11.3025 16.3813 11.0112 15.575 11.0112 14.8225C11.0112 12.8925 12.4725 11.025 14.9625 11.025C17.1125 11.025 18.6175 12.49 18.6175 14.585C18.6175 16.9525 17.4212 18.5912 15.8663 18.5912C15.0075 18.5912 14.365 17.8813 14.5712 17.01C14.8175 15.9688 15.2963 14.8475 15.2963 14.0963C15.2963 13.425 14.9362 12.8638 14.1887 12.8638C13.3112 12.8638 12.6038 13.7725 12.6038 14.9888C12.6038 15.765 12.8675 16.2887 12.8675 16.2887C12.8675 16.2887 12 19.9563 11.8412 20.6375C11.6637 21.3938 11.7338 22.455 11.81 23.1475C8.55625 21.8725 6.25 18.7062 6.25 15C6.25 10.1675 10.1687 6.25 15 6.25C19.8312 6.25 23.75 10.1675 23.75 15C23.75 19.8325 19.8312 23.75 15 23.75Z" fill="#FFCEB3"/>
</svg>
