<svg width="30" height="30" viewBox="0 0 30 30" fill="none" xmlns="http://www.w3.org/2000/svg">
<path d="M15 0C6.71625 0 0 6.71625 0 15C0 23.2838 6.71625 30 15 30C23.2838 30 30 23.2838 30 15C30 6.71625 23.2838 0 15 0ZM20.5513 21.115C17.9237 21.295 12.0712 21.295 9.4475 21.115C6.6025 20.92 6.27125 19.5275 6.25 15C6.27125 10.4637 6.60625 9.08 9.4475 8.885C12.0712 8.705 17.925 8.705 20.5513 8.885C23.3975 9.08 23.7275 10.4725 23.75 15C23.7275 19.5362 23.3937 20.92 20.5513 21.115ZM12.5 12.0725L18.6462 14.995L12.5 17.9275V12.0725Z" fill="#FFCEB3"/>
</svg>
